<?xml version="1.0" encoding="UTF-8"?>
<svg data-bbox="-0.001 0 85.746 60" xmlns="http://www.w3.org/2000/svg" viewBox="0 0 86 60" height="60" width="86" data-type="color">
    <g>
        <path fill="#1D2F6F" d="M19.849 46.204c-1.966.297-3.183 1.391-3.28 2.948-.082 1.32.41 2.33 1.632 3.342l.324.268-.661.442c-1.07.714-1.502 1.367-1.67 2.525-.057.392-.056.673.003 1.117.273 2.044 1.983 3.158 4.841 3.154 1.716-.002 3.014-.4 3.856-1.182.786-.73 1.07-1.474 1.028-2.691-.023-.673-.042-.759-.278-1.235-.315-.638-.89-1.229-1.74-1.787l-.616-.405.41-.23c1.353-.763 2.055-2.115 1.837-3.539-.206-1.349-1.162-2.27-2.73-2.629-.592-.135-2.329-.193-2.956-.098Zm11.012 0c-1.966.297-3.182 1.391-3.28 2.948-.082 1.32.412 2.33 1.633 3.342l.324.268-.662.442c-1.069.714-1.5 1.367-1.67 2.525-.057.392-.056.673.003 1.117.274 2.044 1.984 3.158 4.842 3.154 1.716-.002 3.014-.4 3.855-1.182.787-.73 1.07-1.474 1.029-2.691-.023-.673-.043-.759-.278-1.235-.315-.638-.89-1.229-1.74-1.787l-.616-.405.409-.23c1.353-.763 2.056-2.115 1.838-3.539-.207-1.349-1.163-2.27-2.73-2.629-.592-.135-2.33-.193-2.957-.098Zm11.013 0c-1.966.297-3.183 1.391-3.28 2.948-.082 1.32.411 2.33 1.632 3.342l.325.268-.662.442c-1.07.714-1.501 1.367-1.67 2.525-.057.392-.056.673.003 1.117.274 2.044 1.983 3.158 4.841 3.154 1.716-.002 3.014-.4 3.856-1.182.786-.73 1.07-1.474 1.028-2.691-.023-.673-.042-.759-.278-1.235-.314-.638-.89-1.229-1.74-1.787l-.615-.405.408-.23c1.354-.763 2.056-2.115 1.839-3.539-.207-1.349-1.163-2.27-2.73-2.629-.592-.135-2.33-.193-2.957-.098ZM21.58 48.87c.164.084.357.233.428.33.164.226.168.714.009 1.05-.128.269-.804.846-.991.846-.063 0-.283-.154-.489-.342-.622-.57-.752-1.204-.335-1.648.383-.407.876-.492 1.378-.236Zm11.012 0c.165.084.357.233.428.33.164.226.169.714.01 1.05-.128.269-.804.846-.992.846-.062 0-.282-.154-.488-.342-.623-.57-.752-1.204-.336-1.648.384-.407.877-.492 1.378-.236Zm11.013 0c.164.084.357.233.428.33.164.226.169.714.01 1.05-.129.269-.805.846-.992.846-.063 0-.282-.154-.488-.342-.623-.57-.753-1.204-.336-1.648.383-.407.876-.492 1.378-.236Zm21.517.399c-2.053.296-3.49 1.535-4.059 3.497-.141.488-.156.674-.152 1.933.004 1.322.013 1.425.19 2.004.274.89.545 1.358 1.13 1.942.586.588 1.197.94 2.02 1.166.45.123.715.145 1.754.145 1.405 0 1.926-.102 2.821-.554l.51-.257.019-1.447c.01-.796-.006-1.437-.034-1.424-.03.013-.236.119-.46.235-1.016.525-2.285.758-3.063.562-.402-.102-.858-.511-1.041-.937-.47-1.093-.293-2.796.367-3.53.58-.645 1.379-.717 2.711-.244.377.133.727.248.777.255.06.007.27-.436.594-1.247.276-.691.502-1.293.503-1.336.001-.096-.834-.45-1.392-.59-.972-.244-2.232-.312-3.195-.173Zm-16.522.246c.142.363 3.801 9.94 3.858 10.096l.067.187h1.787c1.64 0 1.792-.01 1.835-.12.204-.51 3.91-10.228 3.91-10.251 0-.017-.84-.03-1.866-.03h-1.867l-.203.663c-1.08 3.53-1.723 5.76-1.755 6.091-.044.443-.114.394-.182-.126-.024-.187-.45-1.747-.945-3.467l-.901-3.127-1.892-.018c-1.786-.017-1.89-.011-1.846.102Zm-27.034 5.184c.547.383.942.856 1.007 1.202.025.129.028.377.009.55-.067.589-.68.968-1.565.967-1.238-.001-1.892-1.01-1.305-2.012.222-.378 1.05-1.045 1.297-1.046.041 0 .292.152.557.339Zm11.013 0c.546.383.942.856 1.007 1.202.024.129.028.377.008.55-.066.589-.68.968-1.565.967-1.237-.001-1.891-1.01-1.304-2.012.221-.378 1.049-1.045 1.297-1.046.04 0 .292.152.557.339Zm11.013 0c.546.383.942.856 1.007 1.202.024.129.027.377.008.55-.066.589-.68.968-1.565.967-1.237-.001-1.892-1.01-1.305-2.012.222-.378 1.05-1.045 1.298-1.046.04 0 .291.152.557.339Z" clip-rule="evenodd" fill-rule="evenodd" data-color="1"/>
        <path fill="#EB3A1B" d="M64.388.076c-4.304.543-8.206 2.404-11.25 5.367-2.302 2.239-4.055 4.922-8.01 12.257-3.11 5.768-4.5 8.056-6.508 10.723-1.093 1.45-1.946 2.423-3.404 3.881-1.44 1.44-2.178 2.093-3.518 3.11-.399.303-.712.574-.694.602.05.08 1.86.655 2.628.834a20.1 20.1 0 0 0 8.82.04c4.1-.916 7.829-3.1 10.408-6.099.328-.381 2.423-3.257 4.656-6.39 5.668-7.953 5.496-7.719 6.004-8.193.89-.832 1.769-1.21 2.929-1.261 1.268-.056 2.238.318 3.127 1.207.74.739 1.14 1.566 1.256 2.595.098.87-.266 2.254-.807 3.066-.528.794-1.495 1.469-2.421 1.689-.514.122-1.57.107-2.108-.03-1.019-.26-2.208-1.074-2.696-1.848-.106-.167-.208-.304-.227-.303-.018 0-2.014 2.777-4.434 6.17l-4.4 6.167.22.193c.4.354 1.519 1.187 2.096 1.562 4.41 2.864 9.967 3.752 15.21 2.428a19.151 19.151 0 0 0 6.06-2.688c1.16-.773 1.859-1.345 2.823-2.309 2.89-2.89 4.768-6.64 5.413-10.81.177-1.146.24-3.383.13-4.568-.152-1.625-.578-3.528-1.126-5.027-.364-.998-1.383-3.011-1.972-3.897-3.04-4.572-7.629-7.495-13.188-8.402-.937-.153-4.007-.193-5.017-.066ZM18.285.53c-3.382.15-6.905 1.29-9.721 3.145C5.713 5.552 3.55 8.02 2.004 11.16.97 13.256.398 15.169.09 17.549c-.145 1.125-.111 3.612.066 4.832.638 4.393 2.563 8.204 5.67 11.218 6.919 6.714 17.76 7.21 25.364 1.161 2.86-2.275 4.911-5.147 8.967-12.555 2.787-5.088 3.682-6.632 5.047-8.7 2.665-4.042 5.474-7.114 8.818-9.643.475-.36.842-.674.815-.699-.026-.024-.308-.137-.626-.25-2.221-.798-4.135-1.124-6.594-1.124-3.143 0-5.909.63-8.735 1.989-2.333 1.122-4.524 2.806-6.141 4.718-.258.306-2.6 3.508-5.204 7.115-5.198 7.202-5.302 7.33-6.338 7.868a6.001 6.001 0 0 1-.978.397c-.541.146-1.589.163-2.107.035-1.121-.276-2.191-1.12-2.737-2.16-.315-.6-.456-1.188-.457-1.912-.001-.766.155-1.419.524-2.188 1.03-2.146 3.507-2.922 5.766-1.807.699.345 1.384.927 1.735 1.475.217.338.228.345.333.216.215-.266 8.762-12.088 8.784-12.15.035-.101-1.123-1.013-2.22-1.747-3.358-2.246-7.28-3.301-11.558-3.11Z" clip-rule="evenodd" fill-rule="evenodd" data-color="2"/>
    </g>
</svg>
